<svg
	width="26"
	height="25"
	viewBox="0 0 26 25"
	fill="none"
	xmlns="http://www.w3.org/2000/svg"
	class="text-white"
>
	<path
		d="M11.8421 2.33917L3.94736 2.33917L3.94736 3.80116"
		stroke="currentColor"
		stroke-width="0.219298"
	/>
	<path d="M17.1053 2.33917L25 2.33917V3.80116" stroke="currentColor" stroke-width="0.219298" />
	<path
		d="M14.5659 4.04361C14.3603 4.04361 14.177 4.00831 14.0161 3.9377C13.8562 3.86709 13.729 3.76897 13.6345 3.64333C13.541 3.51665 13.4902 3.36973 13.4819 3.20255H13.8744C13.8827 3.30535 13.918 3.39413 13.9803 3.46889C14.0426 3.54261 14.1241 3.59972 14.2248 3.64021C14.3255 3.68071 14.4371 3.70096 14.5597 3.70096C14.6967 3.70096 14.8182 3.67708 14.9241 3.62931C15.03 3.58155 15.1131 3.51509 15.1733 3.42995C15.2335 3.34481 15.2637 3.24616 15.2637 3.13402C15.2637 3.01669 15.2346 2.91337 15.1764 2.82408C15.1183 2.73374 15.0331 2.66313 14.921 2.61225C14.8089 2.56137 14.6718 2.53594 14.5098 2.53594H14.2544V2.19328H14.5098C14.6365 2.19328 14.7476 2.17044 14.8431 2.12475C14.9397 2.07906 15.015 2.01469 15.069 1.93162C15.124 1.84855 15.1515 1.75095 15.1515 1.63881C15.1515 1.53082 15.1276 1.43685 15.0799 1.3569C15.0321 1.27694 14.9646 1.21464 14.8774 1.16999C14.7912 1.12535 14.6895 1.10302 14.5721 1.10302C14.4621 1.10302 14.3582 1.12327 14.2606 1.16376C14.1641 1.20322 14.0851 1.26085 14.0239 1.33665C13.9626 1.41141 13.9294 1.50174 13.9242 1.60766H13.5504C13.5566 1.44048 13.607 1.29408 13.7015 1.16844C13.796 1.04176 13.9195 0.943116 14.0722 0.872508C14.2258 0.801901 14.3946 0.766597 14.5784 0.766597C14.7756 0.766597 14.9449 0.806573 15.0861 0.886526C15.2273 0.96544 15.3358 1.06979 15.4116 1.19959C15.4874 1.32938 15.5253 1.46956 15.5253 1.62012C15.5253 1.79975 15.4781 1.95291 15.3836 2.07958C15.2901 2.20626 15.1629 2.294 15.002 2.3428V2.36772C15.2034 2.40095 15.3607 2.48661 15.4739 2.62471C15.5871 2.76177 15.6437 2.93154 15.6437 3.13402C15.6437 3.30742 15.5964 3.46318 15.502 3.60128C15.4085 3.73834 15.2808 3.84633 15.1188 3.92524C14.9568 4.00415 14.7725 4.04361 14.5659 4.04361Z"
		fill="currentColor"
	/>
	<ellipse
		cx="3.17873"
		cy="21.8065"
		rx="2.7965"
		ry="1.52439"
		transform="rotate(-25 3.17873 21.8065)"
		fill="currentColor"
	/>
	<path d="M5.48782 21.1168V5.26317" stroke="currentColor" stroke-width="0.609756" />
	<path
		d="M5.48782 5.26317C5.60977 7.09244 6.51221 10.751 9.14636 10.751"
		stroke="currentColor"
		stroke-width="0.609756"
		stroke-linecap="round"
	/>
	<ellipse
		cx="11.1055"
		cy="21.8065"
		rx="2.7965"
		ry="1.52439"
		transform="rotate(-25 11.1055 21.8065)"
		fill="currentColor"
	/>
	<path d="M13.4146 21.1168V5.26317" stroke="currentColor" stroke-width="0.609756" />
	<path
		d="M13.4146 5.26317C13.5366 7.09244 14.439 10.751 17.0732 10.751"
		stroke="currentColor"
		stroke-width="0.609756"
		stroke-linecap="round"
	/>
	<ellipse
		cx="19.0324"
		cy="21.8065"
		rx="2.7965"
		ry="1.52439"
		transform="rotate(-25 19.0324 21.8065)"
		fill="currentColor"
	/>
	<path d="M21.3415 21.1168V5.26317" stroke="currentColor" stroke-width="0.609756" />
	<path
		d="M21.3415 5.26317C21.4634 7.09244 22.3659 10.751 25 10.751"
		stroke="currentColor"
		stroke-width="0.609756"
		stroke-linecap="round"
	/>
</svg>
